<?xml version="1.0" encoding="UTF-8" standalone="no"?>
<!DOCTYPE svg PUBLIC "-//W3C//DTD SVG 1.1//EN" "http://www.w3.org/Graphics/SVG/1.1/DTD/svg11.dtd">
<svg version="1.1" xmlns="http://www.w3.org/2000/svg" xmlns:xlink="http://www.w3.org/1999/xlink" preserveAspectRatio="xMidYMid meet" viewBox="0 0 1024 1024" width="1024" height="1024"><defs><path d="M371.17 715.25L402.06 715.25L402.06 1006.23L371.17 986.9L371.17 715.25Z" id="d2KhYmGNQq"></path><path d="M402.06 715.25L432.96 715.25L432.96 982.06L402.06 1006.23L402.06 715.25Z" id="c1doYRdk1X"></path><path d="M376.84 574.18L475.08 521.02L647.04 656.34L342.28 862.07L376.84 574.18Z" id="iMXbGZuya"></path><linearGradient id="gradientbpavKWrG6" gradientUnits="userSpaceOnUse" x1="494.66" y1="643.45" x2="647.04" y2="958.27"><stop style="stop-color: #05d120;stop-opacity: 1" offset="0%"></stop><stop style="stop-color: #010000;stop-opacity: 1" offset="100%"></stop></linearGradient><path d="M371.17 617.69L242.45 568.44L147.94 720.42L342.51 862.07L371.17 617.69Z" id="gz3TC5O1G"></path><linearGradient id="gradientb3Rn7dLhW2" gradientUnits="userSpaceOnUse" x1="259.55" y1="507.27" x2="237.81" y2="1118.06"><stop style="stop-color: #348812;stop-opacity: 1" offset="0%"></stop><stop style="stop-color: #010000;stop-opacity: 1" offset="100%"></stop></linearGradient><path d="M354.77 479.94L460.12 412.27L587.23 521.02L332.7 684.59L354.77 479.94Z" id="b1bVYIuFsu"></path><linearGradient id="gradientb438n5arpv" gradientUnits="userSpaceOnUse" x1="459.97" y1="510.03" x2="587.23" y2="761.4"><stop style="stop-color: #05d120;stop-opacity: 1" offset="0%"></stop><stop style="stop-color: #010000;stop-opacity: 1" offset="100%"></stop></linearGradient><path d="M361.39 448.55L259.18 422.26L167.77 565.43L332.7 684.59L361.39 448.55Z" id="c8l5RKXVZH"></path><linearGradient id="gradientbjIPfEA4E" gradientUnits="userSpaceOnUse" x1="264.58" y1="367.61" x2="245.71" y2="913.3"><stop style="stop-color: #348812;stop-opacity: 1" offset="0%"></stop><stop style="stop-color: #010000;stop-opacity: 1" offset="100%"></stop></linearGradient><path d="M342.28 310.38L406.1 283.6L519.52 393.4L326.83 521.02L342.28 310.38Z" id="d18WanuoSG"></path><linearGradient id="gradientiERM5jCF9" gradientUnits="userSpaceOnUse" x1="423.17" y1="368.83" x2="519.52" y2="587.98"><stop style="stop-color: #05d120;stop-opacity: 1" offset="0%"></stop><stop style="stop-color: #010000;stop-opacity: 1" offset="100%"></stop></linearGradient><path d="M342.28 318.94C319.13 310.4 304.65 305.05 298.87 302.92C294.06 301.15 288.67 302.52 285.29 306.36C272.89 320.48 241.9 355.79 192.32 412.27L326.83 521.02L342.28 318.94Z" id="b1zg1CdNnb"></path><linearGradient id="gradienthjCjSAPif" gradientUnits="userSpaceOnUse" x1="267.3" y1="256.03" x2="252.69" y2="712.21"><stop style="stop-color: #348812;stop-opacity: 1" offset="0%"></stop><stop style="stop-color: #010000;stop-opacity: 1" offset="100%"></stop></linearGradient><path d="M322.79 189.36L465.89 276.35L307.34 377.85L322.79 189.36Z" id="d3IunU86q"></path><linearGradient id="gradienta1pjT64" gradientUnits="userSpaceOnUse" x1="386.62" y1="257.02" x2="465.89" y2="431.01"><stop style="stop-color: #05d120;stop-opacity: 1" offset="0%"></stop><stop style="stop-color: #010000;stop-opacity: 1" offset="100%"></stop></linearGradient><path d="M326.83 189.36L219.04 292.8L311.38 377.85L326.83 189.36Z" id="a4qAYkaNmp"></path><linearGradient id="gradientczsWTXiFH" gradientUnits="userSpaceOnUse" x1="272.93" y1="150.1" x2="262.43" y2="542.17"><stop style="stop-color: #348812;stop-opacity: 1" offset="0%"></stop><stop style="stop-color: #010000;stop-opacity: 1" offset="100%"></stop></linearGradient></defs><g><g><use xlink:href="#d2KhYmGNQq" opacity="1" fill="#aa6d09" fill-opacity="1"></use></g><g><use xlink:href="#c1doYRdk1X" opacity="1" fill="#e08c01" fill-opacity="1"></use></g><g><use xlink:href="#iMXbGZuya" opacity="1" fill="url(#gradientbpavKWrG6)"></use></g><g><use xlink:href="#gz3TC5O1G" opacity="1" fill="url(#gradientb3Rn7dLhW2)"></use></g><g><use xlink:href="#b1bVYIuFsu" opacity="1" fill="url(#gradientb438n5arpv)"></use></g><g><use xlink:href="#c8l5RKXVZH" opacity="1" fill="url(#gradientbjIPfEA4E)"></use></g><g><use xlink:href="#d18WanuoSG" opacity="1" fill="url(#gradientiERM5jCF9)"></use></g><g><use xlink:href="#b1zg1CdNnb" opacity="1" fill="url(#gradienthjCjSAPif)"></use></g><g><use xlink:href="#d3IunU86q" opacity="1" fill="url(#gradienta1pjT64)"></use></g><g><use xlink:href="#a4qAYkaNmp" opacity="1" fill="url(#gradientczsWTXiFH)"></use></g></g></svg>